<?xml version="1.0" encoding="UTF-8"?>
<svg width="262px" height="122px" viewBox="0 0 262 122" version="1.1" xmlns="http://www.w3.org/2000/svg" xmlns:xlink="http://www.w3.org/1999/xlink">
    <!-- Generator: Sketch 54.1 (76490) - https://sketchapp.com -->
    <title>Assets-CreateABackEndAppWithJavaScript</title>
    <desc>Created with Sketch.</desc>
    <g id="Skill-Path-Cards---Dashboard" stroke="none" stroke-width="1" fill="none" fill-rule="evenodd">
        <g id="javascript-img" transform="translate(-41.000000, -51.000000)">
            <g id="Back-end-web-dev-w-JS">
                <g id="Assets-CreateABackEndAppWithJavaScript" transform="translate(41.000000, 51.000000)">
                    <rect id="Rectangle-Copy-7" fill="#164032" x="70" y="67" width="84" height="4"></rect>
                    <g id="Server" transform="translate(0.000000, 32.000000)">
                        <path d="M2.19611158,0 L76.9653423,0 C78.0699118,-2.02906125e-16 78.9653423,0.8954305 78.9653423,2 L78.9653423,17.9298246 C78.9653423,19.0343941 78.0699118,19.9298246 76.9653423,19.9298246 L2.19611158,19.9298246 C1.09154208,19.9298246 0.196111581,19.0343941 0.196111581,17.9298246 L0.196111581,2 C0.196111581,0.8954305 1.09154208,2.02906125e-16 2.19611158,0 Z M2.19611158,26.1578947 L76.9653423,26.1578947 C78.0699118,26.1578947 78.9653423,27.0533252 78.9653423,28.1578947 L78.9653423,44.0877193 C78.9653423,45.1922888 78.0699118,46.0877193 76.9653423,46.0877193 L2.19611158,46.0877193 C1.09154208,46.0877193 0.196111581,45.1922888 0.196111581,44.0877193 L0.196111581,28.1578947 C0.196111581,27.0533252 1.09154208,26.1578947 2.19611158,26.1578947 Z M2.19611158,51.0701754 L76.9653423,51.0701754 C78.0699118,51.0701754 78.9653423,51.9656059 78.9653423,53.0701754 L78.9653423,69 C78.9653423,70.1045695 78.0699118,71 76.9653423,71 L2.19611158,71 C1.09154208,71 0.196111581,70.1045695 0.196111581,69 L0.196111581,53.0701754 C0.196111581,51.9656059 1.09154208,51.0701754 2.19611158,51.0701754 Z" id="Combined-Shape" fill="#164032"></path>
                        <path d="M5.39124474,4.09828043 L10.3143217,4.09828043 L10.3143217,9.08073657 L5.39124474,9.08073657 L5.39124474,4.09828043 Z M14.0066294,4.09828043 L18.9297063,4.09828043 L18.9297063,9.08073657 L14.0066294,9.08073657 L14.0066294,4.09828043 Z M22.622014,4.09828043 L27.5450909,4.09828043 L27.5450909,9.08073657 L22.622014,9.08073657 L22.622014,4.09828043 Z" id="Combined-Shape" fill="#91F2D2"></path>
                    </g>
                    <g id="Window" transform="translate(115.000000, 0.000000)">
                        <path d="M2.15625,102.022124 L130.15625,102.022124 C131.260819,102.022124 132.15625,101.126693 132.15625,100.022124 L132.15625,2.02212389 C132.15625,0.917554394 131.260819,0.0221238938 130.15625,0.0221238938 L2.15625,0.0221238938 C1.0516805,0.0221238938 0.15625,0.917554394 0.15625,2.02212389 L0.15625,100.022124 C0.15625,101.126693 1.0516805,102.022124 2.15625,102.022124 Z" id="Window-Container" fill="#3EB38C"></path>
                        <g id="Window-Dots" transform="translate(6.000000, 5.000000)" fill="#164032">
                            <path d="M8.01257798,4.06285491 C8.01257798,6.27201289 6.22209955,8.06285491 4.01281221,8.06285491 C1.80352486,8.06285491 0.0125779762,6.27201289 0.0125779762,4.06285491 C0.0125779762,1.85369693 1.80352486,0.0628549124 4.01281221,0.0628549124 C6.22209955,0.0628549124 8.01257798,1.85369693 8.01257798,4.06285491" id="Dot-1"></path>
                            <path d="M21.1095825,4.06285491 C21.1095825,6.27201289 19.3186356,8.06285491 17.1093483,8.06285491 C14.9000609,8.06285491 13.1095825,6.27201289 13.1095825,4.06285491 C13.1095825,1.85369693 14.9000609,0.0628549124 17.1093483,0.0628549124 C19.3186356,0.0628549124 21.1095825,1.85369693 21.1095825,4.06285491" id="Dot-2"></path>
                            <path d="M34.2061339,4.06285491 C34.2061339,6.27201289 32.415187,8.06285491 30.2058997,8.06285491 C27.9970808,8.06285491 26.2061339,6.27201289 26.2061339,4.06285491 C26.2061339,1.85369693 27.9970808,0.0628549124 30.2058997,0.0628549124 C32.415187,0.0628549124 34.2061339,1.85369693 34.2061339,4.06285491" id="Dot-3"></path>
                        </g>
                    </g>
                    <rect id="Line" fill="#164032" x="70" y="40" width="84" height="4"></rect>
                    <g id="Popout" transform="translate(129.000000, 19.000000)">
                        <path d="M2.15625,102.022124 L130.15625,102.022124 C131.260819,102.022124 132.15625,101.126693 132.15625,100.022124 L132.15625,2.02212389 C132.15625,0.917554394 131.260819,0.0221238938 130.15625,0.0221238938 L2.15625,0.0221238938 C1.0516805,0.0221238938 0.15625,0.917554394 0.15625,2.02212389 L0.15625,100.022124 C0.15625,101.126693 1.0516805,102.022124 2.15625,102.022124 Z" id="Popout-Container" fill="#91F2D2"></path>
                        <g id="Popout-Dots" transform="translate(6.000000, 5.000000)" fill="#164032">
                            <path d="M8.01257798,4.06285491 C8.01257798,6.27201289 6.22209955,8.06285491 4.01281221,8.06285491 C1.80352486,8.06285491 0.0125779762,6.27201289 0.0125779762,4.06285491 C0.0125779762,1.85369693 1.80352486,0.0628549124 4.01281221,0.0628549124 C6.22209955,0.0628549124 8.01257798,1.85369693 8.01257798,4.06285491" id="Dot-1"></path>
                            <path d="M21.1095825,4.06285491 C21.1095825,6.27201289 19.3186356,8.06285491 17.1093483,8.06285491 C14.9000609,8.06285491 13.1095825,6.27201289 13.1095825,4.06285491 C13.1095825,1.85369693 14.9000609,0.0628549124 17.1093483,0.0628549124 C19.3186356,0.0628549124 21.1095825,1.85369693 21.1095825,4.06285491" id="Dot-2"></path>
                            <path d="M34.2061339,4.06285491 C34.2061339,6.27201289 32.415187,8.06285491 30.2058997,8.06285491 C27.9970808,8.06285491 26.2061339,6.27201289 26.2061339,4.06285491 C26.2061339,1.85369693 27.9970808,0.0628549124 30.2058997,0.0628549124 C32.415187,0.0628549124 34.2061339,1.85369693 34.2061339,4.06285491" id="Dot-3"></path>
                        </g>
                    </g>
                </g>
            </g>
        </g>
    </g>
</svg>