<?xml version="1.0" encoding="UTF-8"?>
<svg width="143px" height="142px" viewBox="0 0 143 142" version="1.1" xmlns="http://www.w3.org/2000/svg" xmlns:xlink="http://www.w3.org/1999/xlink">
    <!-- Generator: Sketch 54.1 (76490) - https://sketchapp.com -->
    <title>Asset-IntroToMachineLearning</title>
    <desc>Created with Sketch.</desc>
    <defs>
        <path d="M10.6243344,51.1655259 C14.9909267,57.1280337 22.0432903,61 30,61 L30,57 C19.2815758,57 10.5324467,48.5684451 10.0234035,37.9761259 C10.5147119,27.2514681 18.6847737,18.5298708 29.1637926,17.1811305 C29.0556199,18.1057183 29,19.0463638 29,20 C29,32.9198506 39.2089136,43.4552817 51.9999916,43.9795441 L52,44 L76,44 L76,40 L53,40 C41.954305,40 33,31.045695 33,20 C33,18.4885524 33.1669459,17.0016984 33.494402,15.5568566 C34.0842829,12.9541123 35.1741407,10.5596582 36.6514987,8.46955755 C40.6778505,3.31437049 46.9518689,-4.26325641e-14 54,-4.26325641e-14 C65.4760851,-4.26325641e-14 74.8998564,8.78699998 75.910314,20 L62.6585886,20 C61.8349158,17.6696153 59.6124377,16 57,16 C53.6862915,16 51,18.6862915 51,22 C51,25.3137085 53.6862915,28 57,28 C59.6124377,28 61.8349158,26.3303847 62.6585886,24 L75.9814466,24 L76.0909603,69 L49.6585886,69 C48.8349158,66.6696153 46.6124377,65 44,65 C40.6862915,65 38,67.6862915 38,71 C38,74.3137085 40.6862915,77 44,77 C46.6124377,77 48.8349158,75.3303847 49.6585886,73 L76.1006948,73 L76.1606445,97.6337891 L76.1575932,98 L52,98 L51.9999941,98.0204558 C41.0215426,98.4704237 31.9452713,106.295233 29.5933362,116.672727 C29.2050135,118.386131 29,120.169124 29,122 C29,123.664555 29.1694575,125.289531 29.4920622,126.858618 C18.8555458,125.651608 10.5193614,116.859771 10.0233617,106.022959 C10.0797205,104.847377 10.2377667,103.689214 10.494402,102.556857 C12.541573,93.5240794 20.6105882,87 30,87 L30,83 C23.3499154,83 17.331547,85.7046987 12.9849311,90.0740597 C5.33000267,86.6309799 0,78.9379344 0,70 C0,62.0129467 4.25624159,55.0199919 10.6243344,51.1655259 Z M76.1242643,102 L75.9909487,118 L63.6585886,118 C62.8349158,115.669615 60.6124377,114 58,114 C54.6862915,114 52,116.686292 52,120 C52,123.313708 54.6862915,126 58,126 C60.6124377,126 62.8349158,124.330385 63.6585886,122 L75.910314,122 C74.8998564,133.213 65.4760851,142 54,142 C46.9817127,142 40.7309963,138.713638 36.7027656,133.595829 C34.3713652,130.325072 33,126.322686 33,122 C33,120.488552 33.1669459,119.001698 33.494402,117.556857 C35.541573,108.524079 43.6105882,102 53,102 L52.9999878,102 L76.1242643,102 Z" id="path-1"></path>
    </defs>
    <g id="Skill-Path-Cards---Dashboard" stroke="none" stroke-width="1" fill="none" fill-rule="evenodd">
        <g id="machine-learning-img" transform="translate(-94.000000, -44.000000)">
            <g id="Asset-IntroToMachineLearning" transform="translate(94.000000, 44.000000)">
                <g id="Lines" transform="translate(76.000000, 20.000000)" fill="#2F1A5F">
                    <rect id="Line" x="0" y="20" width="50" height="4"></rect>
                    <rect id="Line" x="0" y="0" width="31" height="4"></rect>
                    <rect id="Line" x="0" y="98" width="31" height="4"></rect>
                    <rect id="Line" x="0" y="49" width="61" height="4"></rect>
                    <rect id="Line" x="0" y="78" width="52" height="4"></rect>
                </g>
                <g id="Nodes" transform="translate(101.000000, 16.000000)" fill="#AC9DF2">
                    <circle id="Node" cx="27" cy="26" r="6"></circle>
                    <circle id="Node" cx="6" cy="6" r="6"></circle>
                    <circle id="Node" cx="6" cy="104" r="6"></circle>
                    <circle id="Node" cx="36" cy="55" r="6"></circle>
                    <circle id="Node" cx="27" cy="84" r="6"></circle>
                </g>
                <mask id="mask-2" fill="white">
                    <use xlink:href="#path-1"></use>
                </mask>
                <use id="Lobe" fill="#C0B6F2" xlink:href="#path-1"></use>
            </g>
        </g>
    </g>
</svg>