<?xml version="1.0" encoding="UTF-8"?>
<svg width="209px" height="156px" viewBox="0 0 209 156" version="1.1" xmlns="http://www.w3.org/2000/svg" xmlns:xlink="http://www.w3.org/1999/xlink">
    <!-- Generator: Sketch 54.1 (76490) - https://sketchapp.com -->
    <title>Assets-BuildAppsWithReact</title>
    <desc>Created with Sketch.</desc>
    <g id="Skill-Path-Cards---Dashboard" stroke="none" stroke-width="1" fill="none" fill-rule="evenodd">
        <g id="react-img" transform="translate(-63.000000, -44.000000)">
            <g id="create-interactive-website-w-react" transform="translate(63.000000, 43.000000)">
                <g id="Assets-BuildAppsWithReact">
                    <g id="Window" transform="translate(0.000000, 0.312500)">
                        <path d="M2,125.46875 L206.3125,125.46875 C207.417069,125.46875 208.3125,124.573319 208.3125,123.46875 L208.3125,2.6875 C208.3125,1.5829305 207.417069,0.6875 206.3125,0.6875 L2,0.6875 C0.8954305,0.6875 -1.3527075e-16,1.5829305 0,2.6875 L0,123.46875 C1.3527075e-16,124.573319 0.8954305,125.46875 2,125.46875 Z" id="Window-Container" fill="#164032"></path>
                        <g id="Window-Dots" transform="translate(5.069415, 5.694523)" fill="#BBFAE5">
                            <path d="M8,4 C8,6.20915798 6.20952158,8 4.00023423,8 C1.79094689,8 0,6.20915798 0,4 C0,1.79084202 1.79094689,0 4.00023423,0 C6.20952158,0 8,1.79084202 8,4" id="Dot-1"></path>
                            <path d="M21.2849099,4 C21.2849099,6.20915798 19.493963,8 17.2846757,8 C15.0753883,8 13.2849099,6.20915798 13.2849099,4 C13.2849099,1.79084202 15.0753883,0 17.2846757,0 C19.493963,0 21.2849099,1.79084202 21.2849099,4" id="Dot-2"></path>
                            <path d="M34.5693602,4 C34.5693602,6.20915798 32.7784133,8 30.5691259,8 C28.360307,8 26.5693602,6.20915798 26.5693602,4 C26.5693602,1.79084202 28.360307,0 30.5691259,0 C32.7784133,0 34.5693602,1.79084202 34.5693602,4" id="Dot-3"></path>
                        </g>
                    </g>
                    <g id="Popout" transform="translate(55.000000, 32.000000)">
                        <path d="M2.15625,124.769912 L130.15625,124.769912 C131.260819,124.769912 132.15625,123.874481 132.15625,122.769912 L132.15625,2.02212389 C132.15625,0.917554394 131.260819,0.0221238938 130.15625,0.0221238938 L2.15625,0.0221238938 C1.0516805,0.0221238938 0.15625,0.917554394 0.15625,2.02212389 L0.15625,122.769912 C0.15625,123.874481 1.0516805,124.769912 2.15625,124.769912 Z" id="Popout-Container" fill="#BBFAE5"></path>
                        <g id="Popout-Dots" transform="translate(5.000000, 4.000000)" fill="#164032">
                            <path d="M8.01257798,4.06285491 C8.01257798,6.27201289 6.22209955,8.06285491 4.01281221,8.06285491 C1.80352486,8.06285491 0.0125779762,6.27201289 0.0125779762,4.06285491 C0.0125779762,1.85369693 1.80352486,0.0628549124 4.01281221,0.0628549124 C6.22209955,0.0628549124 8.01257798,1.85369693 8.01257798,4.06285491" id="Dot-1"></path>
                            <path d="M21.1095825,4.06285491 C21.1095825,6.27201289 19.3186356,8.06285491 17.1093483,8.06285491 C14.9000609,8.06285491 13.1095825,6.27201289 13.1095825,4.06285491 C13.1095825,1.85369693 14.9000609,0.0628549124 17.1093483,0.0628549124 C19.3186356,0.0628549124 21.1095825,1.85369693 21.1095825,4.06285491" id="Dot-2"></path>
                            <path d="M34.2061339,4.06285491 C34.2061339,6.27201289 32.415187,8.06285491 30.2058997,8.06285491 C27.9970808,8.06285491 26.2061339,6.27201289 26.2061339,4.06285491 C26.2061339,1.85369693 27.9970808,0.0628549124 30.2058997,0.0628549124 C32.415187,0.0628549124 34.2061339,1.85369693 34.2061339,4.06285491" id="Dot-3"></path>
                        </g>
                    </g>
                    <path d="M36,70 L55,70 L55,74 L36,74 L36,80 C36,81.1045695 35.1045695,82 34,82 L19,82 C17.8954305,82 17,81.1045695 17,80 L17,65 C17,63.8954305 17.8954305,63 19,63 L34,63 C35.1045695,63 36,63.8954305 36,65 L36,70 Z" id="Node" fill="#47CCA0"></path>
                    <path d="M126,90 L126,73 C126,71.8954305 126.895431,71 128,71 L165,71 C166.104569,71 167,71.8954305 167,73 L167,110 C167,111.104569 166.104569,112 165,112 L128,112 C126.895431,112 126,111.104569 126,110 L126,94 L55,94 L55,90 L126,90 Z" id="Node" fill="#3EB38C"></path>
                </g>
            </g>
        </g>
    </g>
</svg>