<?xml version="1.0" encoding="UTF-8"?>
<svg width="203px" height="139px" viewBox="0 0 203 139" version="1.1" xmlns="http://www.w3.org/2000/svg" xmlns:xlink="http://www.w3.org/1999/xlink">
    <!-- Generator: Sketch 54.1 (76490) - https://sketchapp.com -->
    <title>Assets-AnalyzeDataWithSQL</title>
    <desc>Created with Sketch.</desc>
    <g id="Skill-Path-Cards---Dashboard" stroke="none" stroke-width="1" fill="none" fill-rule="evenodd">
        <g id="sql-img" transform="translate(-59.000000, -40.000000)">
            <g id="Analyze-data-w-SQL">
                <g id="Assets-AnalyzeDataWithSQL" transform="translate(59.000000, 40.000000)">
                    <g id="Bars" transform="translate(26.000000, 4.000000)">
                        <path d="M94.78125,0 L114.78125,0 C115.885819,-2.02906125e-16 116.78125,0.8954305 116.78125,2 L116.78125,133 C116.78125,134.104569 115.885819,135 114.78125,135 L94.78125,135 C93.6766805,135 92.78125,134.104569 92.78125,133 L92.78125,2 C92.78125,0.8954305 93.6766805,2.02906125e-16 94.78125,0 Z" id="Bar-4" fill="#43134D"></path>
                        <path d="M63.78125,64 L83.78125,64 C84.8858195,64 85.78125,64.8954305 85.78125,66 L85.78125,133 C85.78125,134.104569 84.8858195,135 83.78125,135 L63.78125,135 C62.6766805,135 61.78125,134.104569 61.78125,133 L61.78125,66 C61.78125,64.8954305 62.6766805,64 63.78125,64 Z" id="Bar-3" fill="#FFA6F8"></path>
                        <path d="M33.78125,99 L53.78125,99 C54.8858195,99 55.78125,99.8954305 55.78125,101 L55.78125,133 C55.78125,134.104569 54.8858195,135 53.78125,135 L33.78125,135 C32.6766805,135 31.78125,134.104569 31.78125,133 L31.78125,101 C31.78125,99.8954305 32.6766805,99 33.78125,99 Z" id="Bar-2" fill="#43134D"></path>
                        <path d="M2.78125,116 L22.78125,116 C23.8858195,116 24.78125,116.895431 24.78125,118 L24.78125,133 C24.78125,134.104569 23.8858195,135 22.78125,135 L2.78125,135 C1.6766805,135 0.78125,134.104569 0.78125,133 L0.78125,118 C0.78125,116.895431 1.6766805,116 2.78125,116 Z" id="Bar-1" fill="#FFA6F8"></path>
                        <path d="M154.78125,53 L174.78125,53 C175.885819,53 176.78125,53.8954305 176.78125,55 L176.78125,133 C176.78125,134.104569 175.885819,135 174.78125,135 L154.78125,135 C153.676681,135 152.78125,134.104569 152.78125,133 L152.78125,55 C152.78125,53.8954305 153.676681,53 154.78125,53 Z" id="Bar-6" fill="#43134D"></path>
                        <path d="M123.78125,94 L143.78125,94 C144.885819,94 145.78125,94.8954305 145.78125,96 L145.78125,133 C145.78125,134.104569 144.885819,135 143.78125,135 L123.78125,135 C122.676681,135 121.78125,134.104569 121.78125,133 L121.78125,96 C121.78125,94.8954305 122.676681,94 123.78125,94 Z" id="Bar-5" fill="#FFA6F8"></path>
                    </g>
                    <g id="Markers" fill="#9129A6">
                        <rect id="Marker" x="0" y="0" width="9" height="9"></rect>
                        <rect id="Marker" x="0" y="53" width="9" height="9"></rect>
                        <rect id="Marker" x="0" y="100" width="9" height="9"></rect>
                    </g>
                    <g id="Lines" transform="translate(9.000000, 4.000000)" stroke="#43134D" stroke-dasharray="1,4" stroke-linecap="round" stroke-linejoin="round" stroke-width="2">
                        <path d="M114.755765,1 L0.401243932,1" id="Line"></path>
                        <path d="M185,54 L2.40100991,54" id="Line"></path>
                        <path d="M46.8129439,101 L2.40100991,101" id="Line"></path>
                    </g>
                </g>
            </g>
        </g>
    </g>
</svg>